v 1.400000 0.000000 0.000000
v 1.373099 0.273126 0.000000
v 1.293431 0.535757 0.000000
v 1.164057 0.777798 0.000000
v 0.989949 0.989949 0.000000
v 0.777798 1.164057 0.000000
v 0.535757 1.293431 0.000000
v 0.273126 1.373099 0.000000
v 0.000000 1.400000 0.000000
v -0.273126 1.373099 0.000000
v -0.535757 1.293431 0.000000
v -0.777798 1.164057 0.000000
v -0.989949 0.989949 0.000000
v -1.164057 0.777798 0.000000
v -1.293431 0.535757 0.000000
v -1.373099 0.273126 0.000000
v -1.400000 0.000000 0.000000
v -1.373099 -0.273126 0.000000
v -1.293431 -0.535757 0.000000
v -1.164057 -0.777798 0.000000
v -0.989949 -0.989949 0.000000
v -0.777798 -1.164057 0.000000
v -0.535757 -1.293431 0.000000
v -0.273126 -1.373099 0.000000
v -0.000000 -1.400000 0.000000
v 0.273126 -1.373099 0.000000
v 0.535757 -1.293431 0.000000
v 0.777798 -1.164057 0.000000
v 0.989949 -0.989949 0.000000
v 1.164057 -0.777798 0.000000
v 1.293431 -0.535757 0.000000
v 1.373099 -0.273126 0.000000
l 1 2 3 4 5 6 7 8 9 10 11 12 13 14 15 16 17 18 19 20 21 22 23 24 25 26 27 28 29 30 31 32 1
